<svg width="114" height="37" viewBox="0 0 114 37" fill="none" xmlns="http://www.w3.org/2000/svg">
<g clip-path="url(#clip0_204_723)">
<path d="M32.2858 30.1843C32.9224 30.1843 33.4494 30.3855 33.872 30.7829C34.3051 31.1803 34.5138 31.6758 34.5138 32.2645C34.5138 32.8533 34.3051 33.339 33.872 33.7462C33.4494 34.1436 32.9224 34.3448 32.2858 34.3448H30.9135V36.5133H29.8074V30.1892H32.2858V30.1843ZM32.2858 33.3635C32.938 33.3635 33.4076 32.9023 33.4076 32.2596C33.4076 31.6169 32.938 31.1557 32.2858 31.1557H30.9135V33.3586H32.2858V33.3635Z" fill="#103559"/>
<path d="M36.1785 34.7026C36.3384 35.3363 36.9618 35.6848 37.8058 35.6848C38.385 35.6848 38.8207 35.5083 39.1186 35.1688L40.0233 35.6034C39.5268 36.2099 38.7821 36.5132 37.8002 36.5132C36.9783 36.5132 36.3053 36.305 35.7979 35.8976C35.2904 35.4811 35.0366 34.9561 35.0366 34.3224C35.0366 33.6887 35.2904 33.1817 35.7868 32.7653C36.2833 32.3398 36.9342 32.1316 37.7175 32.1316C38.4567 32.1316 39.069 32.3489 39.5434 32.7743C40.0233 33.1998 40.266 33.7249 40.266 34.3314C40.266 34.422 40.2549 34.5487 40.2274 34.7071H36.184L36.1785 34.7026ZM39.1572 33.9693C39.0028 33.2949 38.4236 32.9418 37.7065 32.9418C36.8956 32.9418 36.3274 33.3356 36.173 33.9693H39.1572Z" fill="#103559"/>
<path d="M43.4037 32.8802H42.2034V35.0549C42.2034 35.6354 42.6088 35.6256 43.4037 35.5911V36.4718C41.8033 36.6539 41.1558 36.2455 41.1558 35.0598V32.8851H40.2661V31.9405H41.1558V30.9614L42.2034 30.6711V31.9405H43.4037V32.8851V32.8802Z" fill="#103559"/>
<path d="M45.9835 33.9304C46.6906 34.0709 47.6069 34.3382 47.587 35.2309C47.587 35.6296 47.4127 35.9468 47.0741 36.1733C46.7354 36.3999 46.3121 36.5132 45.7992 36.5132C44.8929 36.5132 44.2206 36.1462 43.9268 35.539L44.7783 35.0904C44.9327 35.4891 45.2713 35.693 45.7942 35.693C46.3171 35.693 46.5761 35.5345 46.5761 35.2263C46.5761 34.959 46.1926 34.8004 45.7046 34.6917C45.0174 34.5331 44.0911 34.2839 44.111 33.4048C44.111 33.0197 44.2654 32.7116 44.5891 32.4805C44.9078 32.2449 45.3162 32.1316 45.7892 32.1316C46.5512 32.1316 47.1637 32.4578 47.4874 33.0016L46.6508 33.4275C46.4964 33.1103 46.2026 32.9517 45.7892 32.9517C45.4158 32.9517 45.1219 33.1012 45.1219 33.3958C45.1219 33.6722 45.5054 33.8126 45.9835 33.9395V33.9304Z" fill="#103559"/>
<path d="M53.8625 31.115C53.0386 31.0524 52.6379 31.3461 52.6379 31.9914V32.0781H53.8625V33.0027H52.6379V36.5133H51.5149V33.0027H50.7249V32.0781H51.5149V31.9914C51.5149 30.7779 52.3275 30.1133 53.8625 30.1904V31.115Z" fill="#103559"/>
<path d="M55.1492 35.8795C54.6435 35.454 54.3853 34.938 54.3853 34.3224C54.3853 33.7068 54.6435 33.1908 55.1492 32.7653C55.6549 32.3398 56.279 32.1316 56.9999 32.1316C57.7209 32.1316 58.3449 32.3398 58.8507 32.7653C59.3564 33.1908 59.6146 33.7068 59.6146 34.3224C59.6146 34.938 59.3564 35.454 58.8507 35.8795C58.3449 36.305 57.7316 36.5132 56.9999 36.5132C56.2683 36.5132 55.6549 36.305 55.1492 35.8795ZM56.9999 35.6396C57.4357 35.6396 57.8016 35.5128 58.0975 35.2639C58.3934 35.0149 58.544 34.6981 58.544 34.3224C58.544 33.9467 58.3934 33.6298 58.0975 33.3809C57.8016 33.1319 57.4357 33.0052 56.9999 33.0052C56.5642 33.0052 56.1983 33.1319 55.9024 33.3809C55.6065 33.6298 55.4559 33.9467 55.4559 34.3224C55.4559 34.6981 55.6065 35.0149 55.9024 35.2639C56.1983 35.5128 56.5642 35.6396 56.9999 35.6396Z" fill="#103559"/>
<path d="M61.215 32.9312C61.4856 32.3981 62.0053 32.1316 62.7524 32.1316V33.137C62.3464 33.1089 61.9837 33.1978 61.6751 33.3942C61.3665 33.5859 61.215 33.9039 61.215 34.3434V36.5132H60.1377V32.2064H61.215V32.9312V32.9312Z" fill="#103559"/>
<path d="M70.5963 34.7064C70.5963 35.222 70.4109 35.654 70.035 35.9977C69.659 36.3414 69.2029 36.5133 68.6616 36.5133H65.8899V30.1843H68.4561C68.9824 30.1843 69.4335 30.3562 69.7944 30.6901C70.1653 31.0239 70.3457 31.4413 70.3457 31.9372C70.3457 32.4871 70.1252 32.9143 69.6891 33.2285C70.2505 33.5182 70.5913 34.0436 70.5913 34.7015L70.5963 34.7064ZM66.9525 31.1614V32.8259H68.4561C68.9273 32.8259 69.2881 32.4625 69.2881 31.9961C69.2881 31.5297 68.9273 31.1663 68.4561 31.1663H66.9525V31.1614ZM68.6616 35.5362C69.1528 35.5362 69.5387 35.1483 69.5387 34.6524C69.5387 34.1565 69.1528 33.7686 68.6616 33.7686H66.9525V35.5411H68.6616V35.5362Z" fill="#103559"/>
<path d="M72.783 34.7026C72.9428 35.3363 73.5655 35.6848 74.4085 35.6848C74.9871 35.6848 75.4225 35.5083 75.72 35.1688L76.6237 35.6034C76.1278 36.2099 75.3839 36.5132 74.403 36.5132C73.582 36.5132 72.9097 36.305 72.4028 35.8976C71.8958 35.4811 71.6423 34.9561 71.6423 34.3224C71.6423 33.6887 71.8958 33.1817 72.3917 32.7653C72.8877 32.3398 73.5379 32.1316 74.3204 32.1316C75.0588 32.1316 75.6704 32.3489 76.1498 32.7743C76.6292 33.1998 76.8717 33.7249 76.8717 34.3314C76.8717 34.422 76.8607 34.5487 76.8331 34.7071H72.794L72.783 34.7026ZM75.7586 33.9693C75.6043 33.2949 75.0257 32.9418 74.3094 32.9418C73.4993 32.9418 72.9318 33.3356 72.7775 33.9693H75.7641H75.7586Z" fill="#103559"/>
<path d="M78.9283 33.9304C79.6354 34.0709 80.5517 34.3382 80.5318 35.2309C80.5318 35.6296 80.3575 35.9468 80.0189 36.1733C79.6802 36.3999 79.257 36.5132 78.744 36.5132C77.8377 36.5132 77.1654 36.1462 76.8716 35.539L77.7231 35.0904C77.8775 35.4891 78.2162 35.693 78.739 35.693C79.2619 35.693 79.5209 35.5345 79.5209 35.2263C79.5209 34.959 79.1374 34.8004 78.6494 34.6917C77.9622 34.5331 77.0359 34.2839 77.0558 33.4048C77.0558 33.0197 77.2102 32.7116 77.5339 32.4805C77.8526 32.2449 78.261 32.1316 78.7341 32.1316C79.496 32.1316 80.1085 32.4578 80.4322 33.0016L79.5956 33.4275C79.4412 33.1103 79.1474 32.9517 78.7341 32.9517C78.3606 32.9517 78.0668 33.1012 78.0668 33.3958C78.0668 33.6722 78.4502 33.8126 78.9283 33.9395V33.9304Z" fill="#103559"/>
<path d="M84.1928 32.8802H82.9945V35.0549C82.9945 35.6354 83.3992 35.6256 84.1928 35.5911V36.4718C82.5951 36.6539 81.9486 36.2455 81.9486 35.0598V32.8851H81.0552V31.9405H81.9486V30.9614L82.9945 30.6711V31.9405H84.1928V32.8851V32.8802Z" fill="#103559"/>
<path d="M24.7713 2.9734C24.6344 1.71423 24.0923 1.46045 23.0395 1.46045H18.5548C17.5705 1.46045 17.3336 1.61662 16.9599 2.62688L13.5963 12.832L10.2328 2.62688C9.85906 1.61662 9.62219 1.46045 8.63787 1.46045H4.14789C3.09514 1.46045 2.55297 1.71423 2.41612 2.9734L0.0368987 23.0077C-0.0631126 23.73 0.00531621 24.018 0.68434 24.1107L5.8165 24.8038C6.59554 24.8965 6.76924 24.7403 6.86925 24.2035L7.99043 14.8183L10.4012 23.608C10.6381 24.3303 10.9434 24.6183 11.7277 24.6183H15.465C16.244 24.6183 16.5546 24.3352 16.7914 23.608L19.1706 14.8183L20.3234 24.2035C20.4234 24.7403 20.5971 24.8965 21.3762 24.8038L26.5083 24.1107C27.1873 24.018 27.2558 23.7349 27.1558 23.0077L24.7713 2.9734Z" fill="#103559"/>
<path d="M37.1284 6.81567C31.3688 6.81567 28.2385 10.4994 28.2385 15.5788C28.2385 20.6583 31.3688 24.342 37.1284 24.342C42.8881 24.342 46.0183 20.6583 46.0183 15.5788C46.0183 10.4994 42.8881 6.81567 37.1284 6.81567ZM37.1284 18.6102C35.7459 18.6102 35.0051 17.4015 35.0051 15.574C35.0051 13.7466 35.7459 12.5379 37.1284 12.5379C38.511 12.5379 39.2518 13.7466 39.2518 15.574C39.2518 17.4015 38.511 18.6102 37.1284 18.6102Z" fill="#103559"/>
<path d="M58.9349 6.8254C57.7542 6.8254 48.9199 7.0443 48.3452 7.79828C48.1101 8.05122 48.1101 8.39659 48.1101 8.99005L48.3818 22.6784C48.4131 23.9334 48.7214 24.342 49.8968 24.342H54.0136C55.1943 24.342 55.5286 23.9334 55.5286 22.6784V13.2269C56.0354 13.0712 56.2026 13.008 56.7772 12.974C57.5504 12.9448 57.9214 13.1637 58.1617 13.7571C58.3289 14.3846 58.3654 15.3283 58.3654 16.6125L58.3341 22.6735C58.3341 23.9285 58.705 24.3371 59.8857 24.3371H64.1017C65.2824 24.3371 65.5854 23.9285 65.6168 22.6735L65.8885 14.3214C65.9198 12.2784 65.4496 10.3958 64.3368 9.01437C63.1561 7.63289 61.4008 6.81567 58.9401 6.81567L58.9349 6.8254Z" fill="#103559"/>
<path d="M74.7583 8.76318H70.5205C69.3611 8.76318 69.0276 9.1363 69.0276 10.3913V22.6849C69.0276 23.9351 69.3611 24.3421 70.5205 24.3421H74.825C75.9844 24.3421 76.3487 23.9351 76.3487 22.6849L76.282 10.3913C76.282 9.17022 75.9177 8.76318 74.7583 8.76318V8.76318Z" fill="#103559"/>
<path d="M72.9496 0.486816C70.4397 0.486816 69.0276 1.92898 69.0276 3.89471C69.0276 5.86044 70.4397 7.30261 72.9496 7.30261C75.4595 7.30261 76.8716 5.86044 76.8716 3.89471C76.8716 1.92898 75.4595 0.486816 72.9496 0.486816V0.486816Z" fill="#103559"/>
<path d="M91.1475 7.32564H88.5408V3.09318C88.5408 1.83948 88.1957 1.46045 87.0012 1.46045H82.9557C81.7559 1.46045 81.3789 1.86863 81.3789 3.09318V7.32564H79.3244C78.1935 7.32564 77.9175 7.51515 77.9175 8.48701V11.908C77.9175 12.8798 78.1935 13.0693 79.3244 13.0693H81.3789V19.0269C81.3789 23.0406 83.6724 24.8289 87.9939 24.8289C89.2628 24.8289 90.5316 24.7365 91.7315 24.513C92.2464 24.4207 92.3845 24.2943 92.3845 23.823L92.2146 19.022C92.2146 18.6138 91.9757 18.4583 91.5297 18.5506C91.1528 18.643 90.7759 18.7061 90.2609 18.7061C89.2681 18.7061 88.5461 18.3903 88.5461 17.0443V13.0596H91.1528C92.2836 13.0596 92.5597 12.8701 92.5597 11.8982V8.47729C92.5597 7.50543 92.2836 7.31592 91.1528 7.31592L91.1475 7.32564Z" fill="#103559"/>
<path d="M102.495 6.81567C96.7357 6.81567 93.6055 10.4994 93.6055 15.5788C93.6055 20.6583 96.7357 24.342 102.495 24.342C108.255 24.342 111.385 20.6583 111.385 15.5788C111.385 10.4994 108.255 6.81567 102.495 6.81567ZM102.495 18.6102C101.113 18.6102 100.372 17.4015 100.372 15.574C100.372 13.7466 101.113 12.5379 102.495 12.5379C103.878 12.5379 104.619 13.7466 104.619 15.574C104.619 17.4015 103.878 18.6102 102.495 18.6102Z" fill="#103559"/>
<path d="M113.039 7.50227C112.434 7.0955 111.445 7.33052 110.819 8.02655C110.194 8.72258 110.179 9.61748 110.778 10.0243C111.382 10.431 112.372 10.196 112.997 9.49997C113.622 8.80394 113.638 7.90904 113.039 7.50227V7.50227Z" fill="#103559"/>
<path d="M98.8184 6.31893C99.5286 6.21715 99.994 5.37872 99.8568 4.44335C99.7197 3.50798 99.0388 2.82947 98.3285 2.93125C97.6183 3.03302 97.1529 3.87146 97.2901 4.80683C97.4272 5.7422 98.1081 6.42071 98.8184 6.31893Z" fill="#103559"/>
<path d="M108.021 7.17878C109.004 7.64164 110.492 6.76623 111.339 5.22169C112.185 3.67715 112.077 2.04708 111.089 1.58422C110.106 1.12136 108.619 1.99677 107.772 3.54131C106.925 5.08585 107.033 6.71592 108.021 7.17878Z" fill="#103559"/>
<path d="M102.934 5.83421C103.924 5.95182 104.885 4.74147 105.077 3.13421C105.268 1.52205 104.621 0.125499 103.625 0.00789414C102.635 -0.10971 101.674 1.10063 101.483 2.70789C101.292 4.32005 101.939 5.71661 102.934 5.83421Z" fill="#103559"/>
</g>
<defs>
<clipPath id="clip0_204_723">
<rect width="114" height="37" fill="white"/>
</clipPath>
</defs>
</svg>
